<?xml version="1.0" standalone="no"?>
<!DOCTYPE svg PUBLIC "-//W3C//DTD SVG 20010904//EN"
 "http://www.w3.org/TR/2001/REC-SVG-20010904/DTD/svg10.dtd">
<svg version="1.0" xmlns="http://www.w3.org/2000/svg"
 width="558.000000pt" height="558.000000pt" viewBox="0 0 558.000000 558.000000"
 preserveAspectRatio="xMidYMid meet">
<metadata>
Created by potrace 1.14, written by Peter Selinger 2001-2017
</metadata>
<g transform="translate(0.000000,558.000000) scale(0.100000,-0.100000)"
fill="#000000" stroke="none">
<path d="M3690 4315 c-242 -33 -467 -117 -661 -247 -105 -70 -258 -217 -336
-322 -376 -508 -392 -1314 -36 -1843 73 -110 214 -257 321 -337 164 -124 377
-217 612 -268 93 -20 133 -22 340 -22 206 0 248 2 337 22 287 63 523 186 725
380 161 155 264 305 345 502 l43 105 0 353 0 352 -795 0 -795 0 0 -275 0 -275
461 0 460 0 -7 -22 c-16 -54 -78 -168 -125 -230 -86 -115 -219 -203 -369 -245
-100 -28 -376 -25 -485 5 -373 103 -575 400 -575 848 0 496 283 826 730 851
257 14 465 -69 589 -235 l54 -72 404 0 c221 0 403 4 403 8 0 23 -64 192 -99
263 -126 250 -331 451 -583 569 -275 129 -634 179 -958 135z"/>
<path d="M200 3965 l0 -295 555 0 555 0 0 -305 0 -305 -490 0 -490 0 0 -285 0
-285 490 0 490 0 0 -325 0 -325 -555 0 -555 0 0 -295 0 -295 920 0 920 0 0
1505 0 1505 -920 0 -920 0 0 -295z"/>
</g>
</svg>
